<svg width="654" height="101" viewBox="0 0 654 101" fill="none" xmlns="http://www.w3.org/2000/svg">
<path d="M34.56 30.92C34.816 31.944 34.944 33.224 34.944 34.76C34.944 36.232 34.816 37.512 34.56 38.6C34.816 39.624 34.944 40.904 34.944 42.44C34.944 43.912 34.816 45.192 34.56 46.28C34.816 47.304 34.944 48.584 34.944 50.12C34.944 51.592 34.816 52.872 34.56 53.96C34.816 54.984 34.944 56.264 34.944 57.8C34.944 59.272 34.816 60.552 34.56 61.64C34.816 62.664 34.944 63.944 34.944 65.48C34.944 66.952 34.816 68.232 34.56 69.32H30.72C30.976 70.344 31.104 71.624 31.104 73.16C31.104 74.632 30.976 75.912 30.72 77H7.68C7.424 75.912 7.296 74.632 7.296 73.16C7.296 71.624 7.424 70.344 7.68 69.32H3.84C3.584 68.232 3.456 66.952 3.456 65.48C3.456 63.944 3.584 62.664 3.84 61.64C3.584 60.552 3.456 59.272 3.456 57.8C3.456 56.264 3.584 54.984 3.84 53.96C3.584 52.872 3.456 51.592 3.456 50.12C3.456 48.584 3.584 47.304 3.84 46.28C3.584 45.192 3.456 43.912 3.456 42.44C3.456 40.904 3.584 39.624 3.84 38.6C3.584 37.512 3.456 36.232 3.456 34.76C3.456 33.224 3.584 31.944 3.84 30.92C3.584 29.832 3.456 28.552 3.456 27.08C3.456 25.544 3.584 24.264 3.84 23.24H11.52C11.776 24.264 11.904 25.544 11.904 27.08C11.904 28.552 11.776 29.832 11.52 30.92C11.776 31.944 11.904 33.224 11.904 34.76C11.904 36.232 11.776 37.512 11.52 38.6C11.776 39.624 11.904 40.904 11.904 42.44C11.904 43.912 11.776 45.192 11.52 46.28C11.776 47.304 11.904 48.584 11.904 50.12C11.904 51.592 11.776 52.872 11.52 53.96C11.776 54.984 11.904 56.264 11.904 57.8C11.904 59.272 11.776 60.552 11.52 61.64C11.776 62.664 11.904 63.944 11.904 65.48C11.904 66.952 11.776 68.232 11.52 69.32H26.88C26.624 68.232 26.496 66.952 26.496 65.48C26.496 63.944 26.624 62.664 26.88 61.64C26.624 60.552 26.496 59.272 26.496 57.8C26.496 56.264 26.624 54.984 26.88 53.96C26.624 52.872 26.496 51.592 26.496 50.12C26.496 48.584 26.624 47.304 26.88 46.28C26.624 45.192 26.496 43.912 26.496 42.44C26.496 40.904 26.624 39.624 26.88 38.6C26.624 37.512 26.496 36.232 26.496 34.76C26.496 33.224 26.624 31.944 26.88 30.92C26.624 29.832 26.496 28.552 26.496 27.08C26.496 25.544 26.624 24.264 26.88 23.24H34.56C34.816 24.264 34.944 25.544 34.944 27.08C34.944 28.552 34.816 29.832 34.56 30.92ZM72.9975 30.92C73.2535 31.944 73.3815 33.224 73.3815 34.76C73.3815 36.232 73.2535 37.512 72.9975 38.6C73.2535 39.624 73.3815 40.904 73.3815 42.44C73.3815 43.912 73.2535 45.192 72.9975 46.28C73.2535 47.304 73.3815 48.584 73.3815 50.12C73.3815 51.592 73.2535 52.872 72.9975 53.96C73.2535 54.984 73.3815 56.264 73.3815 57.8C73.3815 59.272 73.2535 60.552 72.9975 61.64C73.2535 62.664 73.3815 63.944 73.3815 65.48C73.3815 66.952 73.2535 68.232 72.9975 69.32C73.2535 70.344 73.3815 71.624 73.3815 73.16C73.3815 74.632 73.2535 75.912 72.9975 77H65.3175C65.0615 75.912 64.9335 74.632 64.9335 73.16C64.9335 71.624 65.0615 70.344 65.3175 69.32H60.5175C60.2615 68.232 60.1335 66.952 60.1335 65.48C60.1335 63.944 60.2615 62.664 60.5175 61.64H57.6375C57.3815 60.552 57.2535 59.272 57.2535 57.8C57.2535 56.264 57.3815 54.984 57.6375 53.96H53.7975C53.5415 52.872 53.4135 51.592 53.4135 50.12C53.4135 48.584 53.5415 47.304 53.7975 46.28H49.9575C50.2135 47.304 50.3415 48.584 50.3415 50.12C50.3415 51.592 50.2135 52.872 49.9575 53.96C50.2135 54.984 50.3415 56.264 50.3415 57.8C50.3415 59.272 50.2135 60.552 49.9575 61.64C50.2135 62.664 50.3415 63.944 50.3415 65.48C50.3415 66.952 50.2135 68.232 49.9575 69.32C50.2135 70.344 50.3415 71.624 50.3415 73.16C50.3415 74.632 50.2135 75.912 49.9575 77H42.2775C42.0215 75.912 41.8935 74.632 41.8935 73.16C41.8935 71.624 42.0215 70.344 42.2775 69.32C42.0215 68.232 41.8935 66.952 41.8935 65.48C41.8935 63.944 42.0215 62.664 42.2775 61.64C42.0215 60.552 41.8935 59.272 41.8935 57.8C41.8935 56.264 42.0215 54.984 42.2775 53.96C42.0215 52.872 41.8935 51.592 41.8935 50.12C41.8935 48.584 42.0215 47.304 42.2775 46.28C42.0215 45.192 41.8935 43.912 41.8935 42.44C41.8935 40.904 42.0215 39.624 42.2775 38.6C42.0215 37.512 41.8935 36.232 41.8935 34.76C41.8935 33.224 42.0215 31.944 42.2775 30.92C42.0215 29.832 41.8935 28.552 41.8935 27.08C41.8935 25.544 42.0215 24.264 42.2775 23.24H51.8775C52.1335 24.264 52.2615 25.544 52.2615 27.08C52.2615 28.552 52.1335 29.832 51.8775 30.92H54.7575C55.0135 31.944 55.1415 33.224 55.1415 34.76C55.1415 36.232 55.0135 37.512 54.7575 38.6H57.6375C57.8935 39.624 58.0215 40.904 58.0215 42.44C58.0215 43.912 57.8935 45.192 57.6375 46.28H61.4775C61.7335 47.304 61.8615 48.584 61.8615 50.12C61.8615 51.592 61.7335 52.872 61.4775 53.96H65.3175C65.0615 52.872 64.9335 51.592 64.9335 50.12C64.9335 48.584 65.0615 47.304 65.3175 46.28C65.0615 45.192 64.9335 43.912 64.9335 42.44C64.9335 40.904 65.0615 39.624 65.3175 38.6C65.0615 37.512 64.9335 36.232 64.9335 34.76C64.9335 33.224 65.0615 31.944 65.3175 30.92C65.0615 29.832 64.9335 28.552 64.9335 27.08C64.9335 25.544 65.0615 24.264 65.3175 23.24H72.9975C73.2535 24.264 73.3815 25.544 73.3815 27.08C73.3815 28.552 73.2535 29.832 72.9975 30.92ZM111.435 30.92C111.691 31.944 111.819 33.224 111.819 34.76C111.819 36.232 111.691 37.512 111.435 38.6C111.691 39.624 111.819 40.904 111.819 42.44C111.819 43.912 111.691 45.192 111.435 46.28C111.691 47.304 111.819 48.584 111.819 50.12C111.819 51.592 111.691 52.872 111.435 53.96C111.691 54.984 111.819 56.264 111.819 57.8C111.819 59.272 111.691 60.552 111.435 61.64C111.691 62.664 111.819 63.944 111.819 65.48C111.819 66.952 111.691 68.232 111.435 69.32C111.691 70.344 111.819 71.624 111.819 73.16C111.819 74.632 111.691 75.912 111.435 77H103.755C103.499 75.912 103.371 74.632 103.371 73.16C103.371 71.624 103.499 70.344 103.755 69.32H98.955C98.699 68.232 98.571 66.952 98.571 65.48C98.571 63.944 98.699 62.664 98.955 61.64H96.075C95.819 60.552 95.691 59.272 95.691 57.8C95.691 56.264 95.819 54.984 96.075 53.96H92.235C91.979 52.872 91.851 51.592 91.851 50.12C91.851 48.584 91.979 47.304 92.235 46.28H88.395C88.651 47.304 88.779 48.584 88.779 50.12C88.779 51.592 88.651 52.872 88.395 53.96C88.651 54.984 88.779 56.264 88.779 57.8C88.779 59.272 88.651 60.552 88.395 61.64C88.651 62.664 88.779 63.944 88.779 65.48C88.779 66.952 88.651 68.232 88.395 69.32C88.651 70.344 88.779 71.624 88.779 73.16C88.779 74.632 88.651 75.912 88.395 77H80.715C80.459 75.912 80.331 74.632 80.331 73.16C80.331 71.624 80.459 70.344 80.715 69.32C80.459 68.232 80.331 66.952 80.331 65.48C80.331 63.944 80.459 62.664 80.715 61.64C80.459 60.552 80.331 59.272 80.331 57.8C80.331 56.264 80.459 54.984 80.715 53.96C80.459 52.872 80.331 51.592 80.331 50.12C80.331 48.584 80.459 47.304 80.715 46.28C80.459 45.192 80.331 43.912 80.331 42.44C80.331 40.904 80.459 39.624 80.715 38.6C80.459 37.512 80.331 36.232 80.331 34.76C80.331 33.224 80.459 31.944 80.715 30.92C80.459 29.832 80.331 28.552 80.331 27.08C80.331 25.544 80.459 24.264 80.715 23.24H90.315C90.571 24.264 90.699 25.544 90.699 27.08C90.699 28.552 90.571 29.832 90.315 30.92H93.195C93.451 31.944 93.579 33.224 93.579 34.76C93.579 36.232 93.451 37.512 93.195 38.6H96.075C96.331 39.624 96.459 40.904 96.459 42.44C96.459 43.912 96.331 45.192 96.075 46.28H99.915C100.171 47.304 100.299 48.584 100.299 50.12C100.299 51.592 100.171 52.872 99.915 53.96H103.755C103.499 52.872 103.371 51.592 103.371 50.12C103.371 48.584 103.499 47.304 103.755 46.28C103.499 45.192 103.371 43.912 103.371 42.44C103.371 40.904 103.499 39.624 103.755 38.6C103.499 37.512 103.371 36.232 103.371 34.76C103.371 33.224 103.499 31.944 103.755 30.92C103.499 29.832 103.371 28.552 103.371 27.08C103.371 25.544 103.499 24.264 103.755 23.24H111.435C111.691 24.264 111.819 25.544 111.819 27.08C111.819 28.552 111.691 29.832 111.435 30.92ZM130.673 53.96C130.929 54.984 131.057 56.264 131.057 57.8C131.057 59.272 130.929 60.552 130.673 61.64C130.929 62.664 131.057 63.944 131.057 65.48C131.057 66.952 130.929 68.232 130.673 69.32H146.033C146.289 70.344 146.417 71.624 146.417 73.16C146.417 74.632 146.289 75.912 146.033 77H122.993C122.737 75.912 122.609 74.632 122.609 73.16C122.609 71.624 122.737 70.344 122.993 69.32C122.737 68.232 122.609 66.952 122.609 65.48C122.609 63.944 122.737 62.664 122.993 61.64C122.737 60.552 122.609 59.272 122.609 57.8C122.609 56.264 122.737 54.984 122.993 53.96C122.737 52.872 122.609 51.592 122.609 50.12C122.609 48.584 122.737 47.304 122.993 46.28C122.737 45.192 122.609 43.912 122.609 42.44C122.609 40.904 122.737 39.624 122.993 38.6C122.737 37.512 122.609 36.232 122.609 34.76C122.609 33.224 122.737 31.944 122.993 30.92C122.737 29.832 122.609 28.552 122.609 27.08C122.609 25.544 122.737 24.264 122.993 23.24H146.033C146.289 24.264 146.417 25.544 146.417 27.08C146.417 28.552 146.289 29.832 146.033 30.92H130.673C130.929 31.944 131.057 33.224 131.057 34.76C131.057 36.232 130.929 37.512 130.673 38.6C130.929 39.624 131.057 40.904 131.057 42.44C131.057 43.912 130.929 45.192 130.673 46.28H146.033C146.289 47.304 146.417 48.584 146.417 50.12C146.417 51.592 146.289 52.872 146.033 53.96H130.673ZM188.31 61.64C188.566 62.664 188.694 63.944 188.694 65.48C188.694 66.952 188.566 68.232 188.31 69.32H184.47C184.726 70.344 184.854 71.624 184.854 73.16C184.854 74.632 184.726 75.912 184.47 77H165.27C165.014 75.912 164.886 74.632 164.886 73.16C164.886 71.624 165.014 70.344 165.27 69.32H161.43C161.174 68.232 161.046 66.952 161.046 65.48C161.046 63.944 161.174 62.664 161.43 61.64H157.59C157.334 60.552 157.206 59.272 157.206 57.8C157.206 56.264 157.334 54.984 157.59 53.96C157.334 52.872 157.206 51.592 157.206 50.12C157.206 48.584 157.334 47.304 157.59 46.28C157.334 45.192 157.206 43.912 157.206 42.44C157.206 40.904 157.334 39.624 157.59 38.6H161.43C161.174 37.512 161.046 36.232 161.046 34.76C161.046 33.224 161.174 31.944 161.43 30.92H165.27C165.014 29.832 164.886 28.552 164.886 27.08C164.886 25.544 165.014 24.264 165.27 23.24H184.47C184.726 24.264 184.854 25.544 184.854 27.08C184.854 28.552 184.726 29.832 184.47 30.92H188.31C188.566 31.944 188.694 33.224 188.694 34.76C188.694 36.232 188.566 37.512 188.31 38.6H180.63C180.374 37.512 180.246 36.232 180.246 34.76C180.246 33.224 180.374 31.944 180.63 30.92H169.11C169.366 31.944 169.494 33.224 169.494 34.76C169.494 36.232 169.366 37.512 169.11 38.6H165.27C165.526 39.624 165.654 40.904 165.654 42.44C165.654 43.912 165.526 45.192 165.27 46.28C165.526 47.304 165.654 48.584 165.654 50.12C165.654 51.592 165.526 52.872 165.27 53.96C165.526 54.984 165.654 56.264 165.654 57.8C165.654 59.272 165.526 60.552 165.27 61.64H169.11C169.366 62.664 169.494 63.944 169.494 65.48C169.494 66.952 169.366 68.232 169.11 69.32H180.63C180.374 68.232 180.246 66.952 180.246 65.48C180.246 63.944 180.374 62.664 180.63 61.64H188.31ZM207.548 53.96C207.804 54.984 207.932 56.264 207.932 57.8C207.932 59.272 207.804 60.552 207.548 61.64C207.804 62.664 207.932 63.944 207.932 65.48C207.932 66.952 207.804 68.232 207.548 69.32H222.908C223.164 70.344 223.292 71.624 223.292 73.16C223.292 74.632 223.164 75.912 222.908 77H199.868C199.612 75.912 199.484 74.632 199.484 73.16C199.484 71.624 199.612 70.344 199.868 69.32C199.612 68.232 199.484 66.952 199.484 65.48C199.484 63.944 199.612 62.664 199.868 61.64C199.612 60.552 199.484 59.272 199.484 57.8C199.484 56.264 199.612 54.984 199.868 53.96C199.612 52.872 199.484 51.592 199.484 50.12C199.484 48.584 199.612 47.304 199.868 46.28C199.612 45.192 199.484 43.912 199.484 42.44C199.484 40.904 199.612 39.624 199.868 38.6C199.612 37.512 199.484 36.232 199.484 34.76C199.484 33.224 199.612 31.944 199.868 30.92C199.612 29.832 199.484 28.552 199.484 27.08C199.484 25.544 199.612 24.264 199.868 23.24H222.908C223.164 24.264 223.292 25.544 223.292 27.08C223.292 28.552 223.164 29.832 222.908 30.92H207.548C207.804 31.944 207.932 33.224 207.932 34.76C207.932 36.232 207.804 37.512 207.548 38.6C207.804 39.624 207.932 40.904 207.932 42.44C207.932 43.912 207.804 45.192 207.548 46.28H222.908C223.164 47.304 223.292 48.584 223.292 50.12C223.292 51.592 223.164 52.872 222.908 53.96H207.548ZM265.185 53.96C265.441 54.984 265.569 56.264 265.569 57.8C265.569 59.272 265.441 60.552 265.185 61.64C265.441 62.664 265.569 63.944 265.569 65.48C265.569 66.952 265.441 68.232 265.185 69.32H261.345C261.601 70.344 261.729 71.624 261.729 73.16C261.729 74.632 261.601 75.912 261.345 77H238.305C238.049 75.912 237.921 74.632 237.921 73.16C237.921 71.624 238.049 70.344 238.305 69.32H234.465C234.209 68.232 234.081 66.952 234.081 65.48C234.081 63.944 234.209 62.664 234.465 61.64H242.145C242.401 62.664 242.529 63.944 242.529 65.48C242.529 66.952 242.401 68.232 242.145 69.32H257.505C257.249 68.232 257.121 66.952 257.121 65.48C257.121 63.944 257.249 62.664 257.505 61.64C257.249 60.552 257.121 59.272 257.121 57.8C257.121 56.264 257.249 54.984 257.505 53.96H238.305C238.049 52.872 237.921 51.592 237.921 50.12C237.921 48.584 238.049 47.304 238.305 46.28H234.465C234.209 45.192 234.081 43.912 234.081 42.44C234.081 40.904 234.209 39.624 234.465 38.6C234.209 37.512 234.081 36.232 234.081 34.76C234.081 33.224 234.209 31.944 234.465 30.92H238.305C238.049 29.832 237.921 28.552 237.921 27.08C237.921 25.544 238.049 24.264 238.305 23.24H261.345C261.601 24.264 261.729 25.544 261.729 27.08C261.729 28.552 261.601 29.832 261.345 30.92H265.185C265.441 31.944 265.569 33.224 265.569 34.76C265.569 36.232 265.441 37.512 265.185 38.6H257.505C257.249 37.512 257.121 36.232 257.121 34.76C257.121 33.224 257.249 31.944 257.505 30.92H242.145C242.401 31.944 242.529 33.224 242.529 34.76C242.529 36.232 242.401 37.512 242.145 38.6C242.401 39.624 242.529 40.904 242.529 42.44C242.529 43.912 242.401 45.192 242.145 46.28H261.345C261.601 47.304 261.729 48.584 261.729 50.12C261.729 51.592 261.601 52.872 261.345 53.96H265.185ZM303.623 53.96C303.879 54.984 304.007 56.264 304.007 57.8C304.007 59.272 303.879 60.552 303.623 61.64C303.879 62.664 304.007 63.944 304.007 65.48C304.007 66.952 303.879 68.232 303.623 69.32H299.783C300.039 70.344 300.167 71.624 300.167 73.16C300.167 74.632 300.039 75.912 299.783 77H276.743C276.487 75.912 276.359 74.632 276.359 73.16C276.359 71.624 276.487 70.344 276.743 69.32H272.903C272.647 68.232 272.519 66.952 272.519 65.48C272.519 63.944 272.647 62.664 272.903 61.64H280.583C280.839 62.664 280.967 63.944 280.967 65.48C280.967 66.952 280.839 68.232 280.583 69.32H295.943C295.687 68.232 295.559 66.952 295.559 65.48C295.559 63.944 295.687 62.664 295.943 61.64C295.687 60.552 295.559 59.272 295.559 57.8C295.559 56.264 295.687 54.984 295.943 53.96H276.743C276.487 52.872 276.359 51.592 276.359 50.12C276.359 48.584 276.487 47.304 276.743 46.28H272.903C272.647 45.192 272.519 43.912 272.519 42.44C272.519 40.904 272.647 39.624 272.903 38.6C272.647 37.512 272.519 36.232 272.519 34.76C272.519 33.224 272.647 31.944 272.903 30.92H276.743C276.487 29.832 276.359 28.552 276.359 27.08C276.359 25.544 276.487 24.264 276.743 23.24H299.783C300.039 24.264 300.167 25.544 300.167 27.08C300.167 28.552 300.039 29.832 299.783 30.92H303.623C303.879 31.944 304.007 33.224 304.007 34.76C304.007 36.232 303.879 37.512 303.623 38.6H295.943C295.687 37.512 295.559 36.232 295.559 34.76C295.559 33.224 295.687 31.944 295.943 30.92H280.583C280.839 31.944 280.967 33.224 280.967 34.76C280.967 36.232 280.839 37.512 280.583 38.6C280.839 39.624 280.967 40.904 280.967 42.44C280.967 43.912 280.839 45.192 280.583 46.28H299.783C300.039 47.304 300.167 48.584 300.167 50.12C300.167 51.592 300.039 52.872 299.783 53.96H303.623ZM342.444 65.48C342.444 66.952 342.316 68.232 342.06 69.32C342.316 70.344 342.444 71.624 342.444 73.16C342.444 74.632 342.316 75.912 342.06 77H334.38C334.124 75.912 333.996 74.632 333.996 73.16C333.996 71.624 334.124 70.344 334.38 69.32C334.124 68.232 333.996 66.952 333.996 65.48C333.996 63.944 334.124 62.664 334.38 61.64H319.02C319.276 62.664 319.404 63.944 319.404 65.48C319.404 66.952 319.276 68.232 319.02 69.32C319.276 70.344 319.404 71.624 319.404 73.16C319.404 74.632 319.276 75.912 319.02 77H311.34C311.084 75.912 310.956 74.632 310.956 73.16C310.956 71.624 311.084 70.344 311.34 69.32C311.084 68.232 310.956 66.952 310.956 65.48C310.956 63.944 311.084 62.664 311.34 61.64H314.22C313.964 60.552 313.836 59.272 313.836 57.8C313.836 56.264 313.964 54.984 314.22 53.96C313.964 52.872 313.836 51.592 313.836 50.12C313.836 48.584 313.964 47.304 314.22 46.28H316.14C315.884 45.192 315.756 43.912 315.756 42.44C315.756 40.904 315.884 39.624 316.14 38.6H319.02C318.764 37.512 318.636 36.232 318.636 34.76C318.636 33.224 318.764 31.944 319.02 30.92H320.94C320.684 29.832 320.556 28.552 320.556 27.08C320.556 25.544 320.684 24.264 320.94 23.24H332.46C332.716 24.264 332.844 25.544 332.844 27.08C332.844 28.552 332.716 29.832 332.46 30.92H334.38C334.636 31.944 334.764 33.224 334.764 34.76C334.764 36.232 334.636 37.512 334.38 38.6H337.26C337.516 39.624 337.644 40.904 337.644 42.44C337.644 43.912 337.516 45.192 337.26 46.28H339.18C339.436 47.304 339.564 48.584 339.564 50.12C339.564 51.592 339.436 52.872 339.18 53.96C339.436 54.984 339.564 56.264 339.564 57.8C339.564 59.272 339.436 60.552 339.18 61.64H342.06C342.316 62.664 342.444 63.944 342.444 65.48ZM331.5 53.96C331.244 52.872 331.116 51.592 331.116 50.12C331.116 48.584 331.244 47.304 331.5 46.28H329.58C329.324 45.192 329.196 43.912 329.196 42.44C329.196 40.904 329.324 39.624 329.58 38.6H323.82C324.076 39.624 324.204 40.904 324.204 42.44C324.204 43.912 324.076 45.192 323.82 46.28H321.9C322.156 47.304 322.284 48.584 322.284 50.12C322.284 51.592 322.156 52.872 321.9 53.96H331.5ZM380.498 69.32C380.754 70.344 380.882 71.624 380.882 73.16C380.882 74.632 380.754 75.912 380.498 77H372.818C372.562 75.912 372.434 74.632 372.434 73.16C372.434 71.624 372.562 70.344 372.818 69.32H369.938C369.682 68.232 369.554 66.952 369.554 65.48C369.554 63.944 369.682 62.664 369.938 61.64H367.058C366.802 60.552 366.674 59.272 366.674 57.8C366.674 56.264 366.802 54.984 367.058 53.96H357.458C357.714 54.984 357.842 56.264 357.842 57.8C357.842 59.272 357.714 60.552 357.458 61.64C357.714 62.664 357.842 63.944 357.842 65.48C357.842 66.952 357.714 68.232 357.458 69.32C357.714 70.344 357.842 71.624 357.842 73.16C357.842 74.632 357.714 75.912 357.458 77H349.778C349.522 75.912 349.394 74.632 349.394 73.16C349.394 71.624 349.522 70.344 349.778 69.32C349.522 68.232 349.394 66.952 349.394 65.48C349.394 63.944 349.522 62.664 349.778 61.64C349.522 60.552 349.394 59.272 349.394 57.8C349.394 56.264 349.522 54.984 349.778 53.96C349.522 52.872 349.394 51.592 349.394 50.12C349.394 48.584 349.522 47.304 349.778 46.28C349.522 45.192 349.394 43.912 349.394 42.44C349.394 40.904 349.522 39.624 349.778 38.6C349.522 37.512 349.394 36.232 349.394 34.76C349.394 33.224 349.522 31.944 349.778 30.92C349.522 29.832 349.394 28.552 349.394 27.08C349.394 25.544 349.522 24.264 349.778 23.24H376.658C376.914 24.264 377.042 25.544 377.042 27.08C377.042 28.552 376.914 29.832 376.658 30.92H380.498C380.754 31.944 380.882 33.224 380.882 34.76C380.882 36.232 380.754 37.512 380.498 38.6H378.578C378.834 39.624 378.962 40.904 378.962 42.44C378.962 43.912 378.834 45.192 378.578 46.28H372.818C373.074 47.304 373.202 48.584 373.202 50.12C373.202 51.592 373.074 52.872 372.818 53.96H374.738C374.994 54.984 375.122 56.264 375.122 57.8C375.122 59.272 374.994 60.552 374.738 61.64H377.618C377.874 62.664 378.002 63.944 378.002 65.48C378.002 66.952 377.874 68.232 377.618 69.32H380.498ZM370.898 46.28C370.642 45.192 370.514 43.912 370.514 42.44C370.514 40.904 370.642 39.624 370.898 38.6C370.642 37.512 370.514 36.232 370.514 34.76C370.514 33.224 370.642 31.944 370.898 30.92H357.458C357.714 31.944 357.842 33.224 357.842 34.76C357.842 36.232 357.714 37.512 357.458 38.6C357.714 39.624 357.842 40.904 357.842 42.44C357.842 43.912 357.714 45.192 357.458 46.28H370.898ZM419.319 27.08C419.319 28.552 419.191 29.832 418.935 30.92C419.191 31.944 419.319 33.224 419.319 34.76C419.319 36.232 419.191 37.512 418.935 38.6H415.095C415.351 39.624 415.479 40.904 415.479 42.44C415.479 43.912 415.351 45.192 415.095 46.28H411.255C411.511 47.304 411.639 48.584 411.639 50.12C411.639 51.592 411.511 52.872 411.255 53.96H407.415C407.671 54.984 407.799 56.264 407.799 57.8C407.799 59.272 407.671 60.552 407.415 61.64C407.671 62.664 407.799 63.944 407.799 65.48C407.799 66.952 407.671 68.232 407.415 69.32C407.671 70.344 407.799 71.624 407.799 73.16C407.799 74.632 407.671 75.912 407.415 77H399.735C399.479 75.912 399.351 74.632 399.351 73.16C399.351 71.624 399.479 70.344 399.735 69.32C399.479 68.232 399.351 66.952 399.351 65.48C399.351 63.944 399.479 62.664 399.735 61.64C399.479 60.552 399.351 59.272 399.351 57.8C399.351 56.264 399.479 54.984 399.735 53.96H395.895C395.639 52.872 395.511 51.592 395.511 50.12C395.511 48.584 395.639 47.304 395.895 46.28H392.055C391.799 45.192 391.671 43.912 391.671 42.44C391.671 40.904 391.799 39.624 392.055 38.6H388.215C387.959 37.512 387.831 36.232 387.831 34.76C387.831 33.224 387.959 31.944 388.215 30.92C387.959 29.832 387.831 28.552 387.831 27.08C387.831 25.544 387.959 24.264 388.215 23.24H395.895C396.151 24.264 396.279 25.544 396.279 27.08C396.279 28.552 396.151 29.832 395.895 30.92C396.151 31.944 396.279 33.224 396.279 34.76C396.279 36.232 396.151 37.512 395.895 38.6H399.735C399.991 39.624 400.119 40.904 400.119 42.44C400.119 43.912 399.991 45.192 399.735 46.28H407.415C407.159 45.192 407.031 43.912 407.031 42.44C407.031 40.904 407.159 39.624 407.415 38.6H411.255C410.999 37.512 410.871 36.232 410.871 34.76C410.871 33.224 410.999 31.944 411.255 30.92C410.999 29.832 410.871 28.552 410.871 27.08C410.871 25.544 410.999 24.264 411.255 23.24H418.935C419.191 24.264 419.319 25.544 419.319 27.08ZM496.194 42.44C496.194 43.912 496.066 45.192 495.81 46.28H491.97C492.226 47.304 492.354 48.584 492.354 50.12C492.354 51.592 492.226 52.872 491.97 53.96H495.81C496.066 54.984 496.194 56.264 496.194 57.8C496.194 59.272 496.066 60.552 495.81 61.64C496.066 62.664 496.194 63.944 496.194 65.48C496.194 66.952 496.066 68.232 495.81 69.32H491.97C492.226 70.344 492.354 71.624 492.354 73.16C492.354 74.632 492.226 75.912 491.97 77H465.09C464.834 75.912 464.706 74.632 464.706 73.16C464.706 71.624 464.834 70.344 465.09 69.32C464.834 68.232 464.706 66.952 464.706 65.48C464.706 63.944 464.834 62.664 465.09 61.64C464.834 60.552 464.706 59.272 464.706 57.8C464.706 56.264 464.834 54.984 465.09 53.96C464.834 52.872 464.706 51.592 464.706 50.12C464.706 48.584 464.834 47.304 465.09 46.28C464.834 45.192 464.706 43.912 464.706 42.44C464.706 40.904 464.834 39.624 465.09 38.6C464.834 37.512 464.706 36.232 464.706 34.76C464.706 33.224 464.834 31.944 465.09 30.92C464.834 29.832 464.706 28.552 464.706 27.08C464.706 25.544 464.834 24.264 465.09 23.24H491.97C492.226 24.264 492.354 25.544 492.354 27.08C492.354 28.552 492.226 29.832 491.97 30.92H495.81C496.066 31.944 496.194 33.224 496.194 34.76C496.194 36.232 496.066 37.512 495.81 38.6C496.066 39.624 496.194 40.904 496.194 42.44ZM488.13 46.28C487.874 45.192 487.746 43.912 487.746 42.44C487.746 40.904 487.874 39.624 488.13 38.6C487.874 37.512 487.746 36.232 487.746 34.76C487.746 33.224 487.874 31.944 488.13 30.92H472.77C473.026 31.944 473.154 33.224 473.154 34.76C473.154 36.232 473.026 37.512 472.77 38.6C473.026 39.624 473.154 40.904 473.154 42.44C473.154 43.912 473.026 45.192 472.77 46.28H488.13ZM488.13 61.64C487.874 60.552 487.746 59.272 487.746 57.8C487.746 56.264 487.874 54.984 488.13 53.96H472.77C473.026 54.984 473.154 56.264 473.154 57.8C473.154 59.272 473.026 60.552 472.77 61.64C473.026 62.664 473.154 63.944 473.154 65.48C473.154 66.952 473.026 68.232 472.77 69.32H488.13C487.874 68.232 487.746 66.952 487.746 65.48C487.746 63.944 487.874 62.664 488.13 61.64ZM515.048 53.96C515.304 54.984 515.432 56.264 515.432 57.8C515.432 59.272 515.304 60.552 515.048 61.64C515.304 62.664 515.432 63.944 515.432 65.48C515.432 66.952 515.304 68.232 515.048 69.32H530.408C530.664 70.344 530.792 71.624 530.792 73.16C530.792 74.632 530.664 75.912 530.408 77H507.368C507.112 75.912 506.984 74.632 506.984 73.16C506.984 71.624 507.112 70.344 507.368 69.32C507.112 68.232 506.984 66.952 506.984 65.48C506.984 63.944 507.112 62.664 507.368 61.64C507.112 60.552 506.984 59.272 506.984 57.8C506.984 56.264 507.112 54.984 507.368 53.96C507.112 52.872 506.984 51.592 506.984 50.12C506.984 48.584 507.112 47.304 507.368 46.28C507.112 45.192 506.984 43.912 506.984 42.44C506.984 40.904 507.112 39.624 507.368 38.6C507.112 37.512 506.984 36.232 506.984 34.76C506.984 33.224 507.112 31.944 507.368 30.92C507.112 29.832 506.984 28.552 506.984 27.08C506.984 25.544 507.112 24.264 507.368 23.24H530.408C530.664 24.264 530.792 25.544 530.792 27.08C530.792 28.552 530.664 29.832 530.408 30.92H515.048C515.304 31.944 515.432 33.224 515.432 34.76C515.432 36.232 515.304 37.512 515.048 38.6C515.304 39.624 515.432 40.904 515.432 42.44C515.432 43.912 515.304 45.192 515.048 46.28H530.408C530.664 47.304 530.792 48.584 530.792 50.12C530.792 51.592 530.664 52.872 530.408 53.96H515.048ZM553.485 53.96C553.741 54.984 553.869 56.264 553.869 57.8C553.869 59.272 553.741 60.552 553.485 61.64C553.741 62.664 553.869 63.944 553.869 65.48C553.869 66.952 553.741 68.232 553.485 69.32H568.845C569.101 70.344 569.229 71.624 569.229 73.16C569.229 74.632 569.101 75.912 568.845 77H545.805C545.549 75.912 545.421 74.632 545.421 73.16C545.421 71.624 545.549 70.344 545.805 69.32C545.549 68.232 545.421 66.952 545.421 65.48C545.421 63.944 545.549 62.664 545.805 61.64C545.549 60.552 545.421 59.272 545.421 57.8C545.421 56.264 545.549 54.984 545.805 53.96C545.549 52.872 545.421 51.592 545.421 50.12C545.421 48.584 545.549 47.304 545.805 46.28C545.549 45.192 545.421 43.912 545.421 42.44C545.421 40.904 545.549 39.624 545.805 38.6C545.549 37.512 545.421 36.232 545.421 34.76C545.421 33.224 545.549 31.944 545.805 30.92C545.549 29.832 545.421 28.552 545.421 27.08C545.421 25.544 545.549 24.264 545.805 23.24H568.845C569.101 24.264 569.229 25.544 569.229 27.08C569.229 28.552 569.101 29.832 568.845 30.92H553.485C553.741 31.944 553.869 33.224 553.869 34.76C553.869 36.232 553.741 37.512 553.485 38.6C553.741 39.624 553.869 40.904 553.869 42.44C553.869 43.912 553.741 45.192 553.485 46.28H568.845C569.101 47.304 569.229 48.584 569.229 50.12C569.229 51.592 569.101 52.872 568.845 53.96H553.485ZM611.507 34.76C611.507 36.232 611.379 37.512 611.123 38.6C611.379 39.624 611.507 40.904 611.507 42.44C611.507 43.912 611.379 45.192 611.123 46.28H607.283C607.539 47.304 607.667 48.584 607.667 50.12C607.667 51.592 607.539 52.872 607.283 53.96H588.083C588.339 54.984 588.467 56.264 588.467 57.8C588.467 59.272 588.339 60.552 588.083 61.64C588.339 62.664 588.467 63.944 588.467 65.48C588.467 66.952 588.339 68.232 588.083 69.32C588.339 70.344 588.467 71.624 588.467 73.16C588.467 74.632 588.339 75.912 588.083 77H580.403C580.147 75.912 580.019 74.632 580.019 73.16C580.019 71.624 580.147 70.344 580.403 69.32C580.147 68.232 580.019 66.952 580.019 65.48C580.019 63.944 580.147 62.664 580.403 61.64C580.147 60.552 580.019 59.272 580.019 57.8C580.019 56.264 580.147 54.984 580.403 53.96C580.147 52.872 580.019 51.592 580.019 50.12C580.019 48.584 580.147 47.304 580.403 46.28C580.147 45.192 580.019 43.912 580.019 42.44C580.019 40.904 580.147 39.624 580.403 38.6C580.147 37.512 580.019 36.232 580.019 34.76C580.019 33.224 580.147 31.944 580.403 30.92C580.147 29.832 580.019 28.552 580.019 27.08C580.019 25.544 580.147 24.264 580.403 23.24H607.283C607.539 24.264 607.667 25.544 607.667 27.08C607.667 28.552 607.539 29.832 607.283 30.92H611.123C611.379 31.944 611.507 33.224 611.507 34.76ZM603.443 46.28C603.187 45.192 603.059 43.912 603.059 42.44C603.059 40.904 603.187 39.624 603.443 38.6C603.187 37.512 603.059 36.232 603.059 34.76C603.059 33.224 603.187 31.944 603.443 30.92H588.083C588.339 31.944 588.467 33.224 588.467 34.76C588.467 36.232 588.339 37.512 588.083 38.6C588.339 39.624 588.467 40.904 588.467 42.44C588.467 43.912 588.339 45.192 588.083 46.28H603.443ZM649.56 53.96C649.816 54.984 649.944 56.264 649.944 57.8C649.944 59.272 649.816 60.552 649.56 61.64C649.816 62.664 649.944 63.944 649.944 65.48C649.944 66.952 649.816 68.232 649.56 69.32H645.72C645.976 70.344 646.104 71.624 646.104 73.16C646.104 74.632 645.976 75.912 645.72 77H622.68C622.424 75.912 622.296 74.632 622.296 73.16C622.296 71.624 622.424 70.344 622.68 69.32H618.84C618.584 68.232 618.456 66.952 618.456 65.48C618.456 63.944 618.584 62.664 618.84 61.64H626.52C626.776 62.664 626.904 63.944 626.904 65.48C626.904 66.952 626.776 68.232 626.52 69.32H641.88C641.624 68.232 641.496 66.952 641.496 65.48C641.496 63.944 641.624 62.664 641.88 61.64C641.624 60.552 641.496 59.272 641.496 57.8C641.496 56.264 641.624 54.984 641.88 53.96H622.68C622.424 52.872 622.296 51.592 622.296 50.12C622.296 48.584 622.424 47.304 622.68 46.28H618.84C618.584 45.192 618.456 43.912 618.456 42.44C618.456 40.904 618.584 39.624 618.84 38.6C618.584 37.512 618.456 36.232 618.456 34.76C618.456 33.224 618.584 31.944 618.84 30.92H622.68C622.424 29.832 622.296 28.552 622.296 27.08C622.296 25.544 622.424 24.264 622.68 23.24H645.72C645.976 24.264 646.104 25.544 646.104 27.08C646.104 28.552 645.976 29.832 645.72 30.92H649.56C649.816 31.944 649.944 33.224 649.944 34.76C649.944 36.232 649.816 37.512 649.56 38.6H641.88C641.624 37.512 641.496 36.232 641.496 34.76C641.496 33.224 641.624 31.944 641.88 30.92H626.52C626.776 31.944 626.904 33.224 626.904 34.76C626.904 36.232 626.776 37.512 626.52 38.6C626.776 39.624 626.904 40.904 626.904 42.44C626.904 43.912 626.776 45.192 626.52 46.28H645.72C645.976 47.304 646.104 48.584 646.104 50.12C646.104 51.592 645.976 52.872 645.72 53.96H649.56Z" fill="black"/>
<path d="M9.144 89.68C9.144 90.232 9.096 90.712 9 91.12C9.096 91.504 9.144 91.984 9.144 92.56C9.144 93.112 9.096 93.592 9 94H5.4C5.304 93.592 5.256 93.112 5.256 92.56C5.256 91.984 5.304 91.504 5.4 91.12C5.304 90.712 5.256 90.232 5.256 89.68C5.256 89.104 5.304 88.624 5.4 88.24H9C9.096 88.624 9.144 89.104 9.144 89.68ZM23.5581 89.68C23.5581 90.232 23.5101 90.712 23.4141 91.12C23.5101 91.504 23.5581 91.984 23.5581 92.56C23.5581 93.112 23.5101 93.592 23.4141 94H19.8141C19.7181 93.592 19.6701 93.112 19.6701 92.56C19.6701 91.984 19.7181 91.504 19.8141 91.12C19.7181 90.712 19.6701 90.232 19.6701 89.68C19.6701 89.104 19.7181 88.624 19.8141 88.24H23.4141C23.5101 88.624 23.5581 89.104 23.5581 89.68ZM41.7881 91.12C41.8841 91.504 41.9321 91.984 41.9321 92.56C41.9321 93.112 41.8841 93.592 41.7881 94H30.2681C30.1721 93.592 30.1241 93.112 30.1241 92.56C30.1241 91.984 30.1721 91.504 30.2681 91.12H41.7881ZM70.6163 91.12C70.7123 91.504 70.7603 91.984 70.7603 92.56C70.7603 93.112 70.7123 93.592 70.6163 94H59.0963C59.0003 93.592 58.9523 93.112 58.9523 92.56C58.9523 91.984 59.0003 91.504 59.0963 91.12H70.6163ZM81.2143 89.68C81.2143 90.232 81.1663 90.712 81.0703 91.12C81.1663 91.504 81.2143 91.984 81.2143 92.56C81.2143 93.112 81.1663 93.592 81.0703 94H77.4703C77.3743 93.592 77.3263 93.112 77.3263 92.56C77.3263 91.984 77.3743 91.504 77.4703 91.12C77.3743 90.712 77.3263 90.232 77.3263 89.68C77.3263 89.104 77.3743 88.624 77.4703 88.24H81.0703C81.1663 88.624 81.2143 89.104 81.2143 89.68ZM113.858 91.12C113.954 91.504 114.002 91.984 114.002 92.56C114.002 93.112 113.954 93.592 113.858 94H102.338C102.242 93.592 102.194 93.112 102.194 92.56C102.194 91.984 102.242 91.504 102.338 91.12H113.858ZM124.457 89.68C124.457 90.232 124.409 90.712 124.312 91.12C124.409 91.504 124.457 91.984 124.457 92.56C124.457 93.112 124.409 93.592 124.312 94H120.713C120.617 93.592 120.569 93.112 120.569 92.56C120.569 91.984 120.617 91.504 120.713 91.12C120.617 90.712 120.569 90.232 120.569 89.68C120.569 89.104 120.617 88.624 120.713 88.24H124.312C124.409 88.624 124.457 89.104 124.457 89.68ZM138.871 89.68C138.871 90.232 138.823 90.712 138.727 91.12C138.823 91.504 138.871 91.984 138.871 92.56C138.871 93.112 138.823 93.592 138.727 94H135.127C135.031 93.592 134.983 93.112 134.983 92.56C134.983 91.984 135.031 91.504 135.127 91.12C135.031 90.712 134.983 90.232 134.983 89.68C134.983 89.104 135.031 88.624 135.127 88.24H138.727C138.823 88.624 138.871 89.104 138.871 89.68ZM167.699 89.68C167.699 90.232 167.651 90.712 167.555 91.12C167.651 91.504 167.699 91.984 167.699 92.56C167.699 93.112 167.651 93.592 167.555 94H163.955C163.859 93.592 163.811 93.112 163.811 92.56C163.811 91.984 163.859 91.504 163.955 91.12C163.859 90.712 163.811 90.232 163.811 89.68C163.811 89.104 163.859 88.624 163.955 88.24H167.555C167.651 88.624 167.699 89.104 167.699 89.68ZM196.527 89.68C196.527 90.232 196.479 90.712 196.383 91.12C196.479 91.504 196.527 91.984 196.527 92.56C196.527 93.112 196.479 93.592 196.383 94H192.783C192.687 93.592 192.639 93.112 192.639 92.56C192.639 91.984 192.687 91.504 192.783 91.12C192.687 90.712 192.639 90.232 192.639 89.68C192.639 89.104 192.687 88.624 192.783 88.24H196.383C196.479 88.624 196.527 89.104 196.527 89.68ZM214.757 91.12C214.853 91.504 214.901 91.984 214.901 92.56C214.901 93.112 214.853 93.592 214.757 94H203.237C203.141 93.592 203.093 93.112 203.093 92.56C203.093 91.984 203.141 91.504 203.237 91.12H214.757ZM225.355 89.68C225.355 90.232 225.307 90.712 225.211 91.12C225.307 91.504 225.355 91.984 225.355 92.56C225.355 93.112 225.307 93.592 225.211 94H221.611C221.515 93.592 221.467 93.112 221.467 92.56C221.467 91.984 221.515 91.504 221.611 91.12C221.515 90.712 221.467 90.232 221.467 89.68C221.467 89.104 221.515 88.624 221.611 88.24H225.211C225.307 88.624 225.355 89.104 225.355 89.68ZM254.183 89.68C254.183 90.232 254.135 90.712 254.039 91.12C254.135 91.504 254.183 91.984 254.183 92.56C254.183 93.112 254.135 93.592 254.039 94H250.439C250.343 93.592 250.295 93.112 250.295 92.56C250.295 91.984 250.343 91.504 250.439 91.12C250.343 90.712 250.295 90.232 250.295 89.68C250.295 89.104 250.343 88.624 250.439 88.24H254.039C254.135 88.624 254.183 89.104 254.183 89.68ZM272.413 91.12C272.509 91.504 272.557 91.984 272.557 92.56C272.557 93.112 272.509 93.592 272.413 94H260.893C260.797 93.592 260.749 93.112 260.749 92.56C260.749 91.984 260.797 91.504 260.893 91.12H272.413ZM283.011 89.68C283.011 90.232 282.963 90.712 282.867 91.12C282.963 91.504 283.011 91.984 283.011 92.56C283.011 93.112 282.963 93.592 282.867 94H279.267C279.171 93.592 279.123 93.112 279.123 92.56C279.123 91.984 279.171 91.504 279.267 91.12C279.171 90.712 279.123 90.232 279.123 89.68C279.123 89.104 279.171 88.624 279.267 88.24H282.867C282.963 88.624 283.011 89.104 283.011 89.68ZM297.425 89.68C297.425 90.232 297.377 90.712 297.281 91.12C297.377 91.504 297.425 91.984 297.425 92.56C297.425 93.112 297.377 93.592 297.281 94H293.681C293.585 93.592 293.537 93.112 293.537 92.56C293.537 91.984 293.585 91.504 293.681 91.12C293.585 90.712 293.537 90.232 293.537 89.68C293.537 89.104 293.585 88.624 293.681 88.24H297.281C297.377 88.624 297.425 89.104 297.425 89.68ZM326.253 89.68C326.253 90.232 326.205 90.712 326.109 91.12C326.205 91.504 326.253 91.984 326.253 92.56C326.253 93.112 326.205 93.592 326.109 94H322.509C322.413 93.592 322.365 93.112 322.365 92.56C322.365 91.984 322.413 91.504 322.509 91.12C322.413 90.712 322.365 90.232 322.365 89.68C322.365 89.104 322.413 88.624 322.509 88.24H326.109C326.205 88.624 326.253 89.104 326.253 89.68ZM340.667 89.68C340.667 90.232 340.619 90.712 340.523 91.12C340.619 91.504 340.667 91.984 340.667 92.56C340.667 93.112 340.619 93.592 340.523 94H336.923C336.827 93.592 336.779 93.112 336.779 92.56C336.779 91.984 336.827 91.504 336.923 91.12C336.827 90.712 336.779 90.232 336.779 89.68C336.779 89.104 336.827 88.624 336.923 88.24H340.523C340.619 88.624 340.667 89.104 340.667 89.68ZM373.312 91.12C373.408 91.504 373.456 91.984 373.456 92.56C373.456 93.112 373.408 93.592 373.312 94H361.792C361.696 93.592 361.648 93.112 361.648 92.56C361.648 91.984 361.696 91.504 361.792 91.12H373.312ZM383.91 89.68C383.91 90.232 383.862 90.712 383.766 91.12C383.862 91.504 383.91 91.984 383.91 92.56C383.91 93.112 383.862 93.592 383.766 94H380.166C380.07 93.592 380.022 93.112 380.022 92.56C380.022 91.984 380.07 91.504 380.166 91.12C380.07 90.712 380.022 90.232 380.022 89.68C380.022 89.104 380.07 88.624 380.166 88.24H383.766C383.862 88.624 383.91 89.104 383.91 89.68ZM412.738 89.68C412.738 90.232 412.69 90.712 412.594 91.12C412.69 91.504 412.738 91.984 412.738 92.56C412.738 93.112 412.69 93.592 412.594 94H408.994C408.898 93.592 408.85 93.112 408.85 92.56C408.85 91.984 408.898 91.504 408.994 91.12C408.898 90.712 408.85 90.232 408.85 89.68C408.85 89.104 408.898 88.624 408.994 88.24H412.594C412.69 88.624 412.738 89.104 412.738 89.68Z" fill="black"/>
</svg>
